<?xml version="1.0" encoding="UTF-8" standalone="no"?>
<!-- Generated by Pixelmator Pro 3.6.1 -->

<svg
   width="3840"
   height="960"
   viewBox="0 0 3840 960"
   version="1.1"
   id="svg1"
   sodipodi:docname="10years.svg"
   inkscape:version="1.3.1 (9b9bdc1480, 2023-11-25, custom)"
   xmlns:inkscape="http://www.inkscape.org/namespaces/inkscape"
   xmlns:sodipodi="http://sodipodi.sourceforge.net/DTD/sodipodi-0.dtd"
   xmlns="http://www.w3.org/2000/svg"
   xmlns:svg="http://www.w3.org/2000/svg">
  <defs
     id="defs1" />
  <sodipodi:namedview
     id="namedview1"
     pagecolor="#ffffff"
     bordercolor="#666666"
     borderopacity="1.0"
     inkscape:showpageshadow="2"
     inkscape:pageopacity="0.0"
     inkscape:pagecheckerboard="0"
     inkscape:deskcolor="#d1d1d1"
     showgrid="false"
     inkscape:zoom="0.1831493"
     inkscape:cx="2080.27"
     inkscape:cy="772.59371"
     inkscape:window-width="1834"
     inkscape:window-height="1012"
     inkscape:window-x="0"
     inkscape:window-y="0"
     inkscape:window-maximized="1"
     inkscape:current-layer="svg1" />
  <g
     id="g1"
     transform="matrix(0.2610824,0,0,0.2610824,1376.0785,-64.556642)">
    <path
       id="path1"
       fill="#ffffff"
       stroke="none"
       d="m 3255.1514,3010.7715 c -39.137,-136.2954 -149.7217,-267.085 -331.8333,-372.2266 -463.9104,-267.8388 -1216.0596,-267.8418 -1679.9701,0 -182.1114,105.1419 -292.69621,235.9317 -331.83048,372.2298 l -16.10016,-123.4072 v 250.0131 h 0.28522 c 5.95111,170.8724 121.80372,340.7034 347.65102,471.0953 463.9136,267.8413 1216.0627,267.8442 1679.9701,0.01 225.8474,-130.3943 341.6973,-300.2282 347.6458,-471.1006 h 0.2849 v -223.9462 z" />
    <path
       id="path2"
       fill="#ffffff"
       stroke="none"
       d="m 3255.1514,2786.825 c -39.137,-136.2947 -149.7217,-267.0845 -331.8333,-372.2264 -463.9104,-267.8388 -1216.0596,-267.8415 -1679.9701,0 -182.1114,105.1416 -292.69621,235.9316 -331.83048,372.2293 l -16.10016,-55.8414 v 182.4476 h 0.28522 c 5.95111,170.8725 121.80372,340.7036 347.65102,471.0952 463.9136,267.8413 1216.0627,267.8444 1679.9701,0.01 225.8474,-130.3943 341.6973,-300.2283 347.6458,-471.1008 h 0.2849 V 2786.825 Z" />
    <path
       id="path3"
       fill="#ffffff"
       stroke="none"
       d="m 3255.1514,2561.3472 c -39.137,-136.295 -149.7217,-267.085 -331.8333,-372.2266 -463.9104,-267.8386 -1216.0596,-267.8415 -1679.9701,0 -182.1114,105.1416 -292.69621,235.9316 -331.83048,372.2295 h -16.10016 v 126.6059 h 0.28522 c 5.95111,170.8726 121.80372,340.7036 347.65102,471.0955 463.9136,267.8413 1216.0627,267.844 1679.9701,0.01 225.8474,-130.3948 341.6973,-300.2285 347.6458,-471.1011 h 0.2849 v -126.6059 z" />
    <path
       id="path4"
       fill="#ff2d9b"
       stroke="none"
       d="m 3255.1514,2448.6084 c -39.137,-136.2952 -149.7217,-267.085 -331.8333,-372.2268 -463.9104,-267.8386 -1216.0596,-267.8416 -1679.9701,0 -182.1114,105.1418 -292.69621,235.9318 -331.83048,372.2297 h -16.10016 v 126.6055 h 0.28522 c 5.95111,170.873 121.80372,340.7036 347.65102,471.0957 463.9136,267.8413 1216.0627,267.8442 1679.9701,0.01 225.8474,-130.3945 341.6973,-300.2283 347.6458,-471.1013 h 0.2849 v -126.6055 z" />
    <path
       id="path5"
       fill="#16a4bc"
       stroke="none"
       d="m 3211.8105,2448.6084 v 45.6072 l -297.9335,234.3391 -638.7205,214.2671 -585.9553,22.447 -440.4877,-238.7551 -353.29413,-277.9053 c 0,2.5066 -0.008,5.0137 -0.008,7.5205 0.004,0 0.004,303.7647 0.004,303.7647 5.97424,16.0459 18.49328,28.9794 28.81995,42.8295 26.45654,35.4922 38.85992,79.2105 58.28594,118.9869 1.47455,3.021 2.99298,6.0224 4.55957,8.9956 39.14677,74.4394 105.57917,133.4111 182.72497,166.3003 84.2563,35.9223 178.8233,30.5102 264.2152,63.5788 152.8488,59.1907 255.8497,235.8098 419.631,242.3501 117.6039,4.6951 217.6713,-82.6699 331.4528,-112.7815 205.8179,-54.4795 434.2341,82.5664 631.5469,2.583 125.5151,-50.8767 201.6167,-175.4873 294.3542,-274.1875 47.0105,-50.0317 100.406,-95.2724 136.2329,-153.8335 10.0755,-16.4643 18.1504,-33.6823 23.9973,-51.3906 v -137.4043 -227.312 z" />
    <g
       id="g4">
      <path
         id="path6"
         fill="#0cc1d1"
         stroke="none"
         d="m 2923.3242,2935.0903 c -463.9099,267.8389 -1216.0586,267.8374 -1679.9714,0 -463.91286,-267.8398 -463.91512,-702.0935 -0.01,-969.9321 463.9099,-267.8384 1216.0588,-267.8369 1679.9716,0 463.9128,267.8401 463.915,702.0936 0.01,969.9319 z" />
    </g>
    <path
       id="path7"
       fill="none"
       stroke="none"
       d="m 2923.3242,2935.0903 c -463.9099,267.8389 -1216.0586,267.8374 -1679.9714,0 -463.91286,-267.8398 -463.91512,-702.0935 -0.01,-969.9321 463.9099,-267.8384 1216.0588,-267.8369 1679.9716,0 463.9128,267.8401 463.915,702.0936 0.01,969.9319 z" />
    <path
       id="path8"
       fill="#ffffff"
       stroke="none"
       d="m 2915.5791,2293.2495 c -27.7957,-96.7991 -106.3347,-189.6885 -235.6736,-264.3616 -329.477,-190.2236 -863.666,-190.2255 -1193.1432,0 -129.3387,74.6733 -207.878,167.5622 -235.6717,264.3635 h -11.4346 v 89.9177 h 0.2024 c 4.2267,121.3567 86.5072,241.9734 246.9078,334.5799 329.4793,190.2256 863.6684,190.2275 1193.1435,0 160.4006,-92.6084 242.6789,-213.2273 246.9038,-334.584 h 0.2026 v -89.9177 z" />
    <path
       id="path9"
       fill="#ffffff"
       stroke="none"
       d="m 2915.5791,2133.1113 c -27.7957,-96.799 -106.3347,-189.6884 -235.6736,-264.3618 -329.477,-190.2236 -863.666,-190.2256 -1193.1432,0 -129.3387,74.6733 -207.878,167.5627 -235.6717,264.3637 h -11.4346 v 89.9175 h 0.2024 c 4.2267,121.3569 86.5072,241.9736 246.9078,334.5801 329.4793,190.2256 863.6684,190.2275 1193.1435,0 160.4006,-92.6084 242.6789,-213.2271 246.9038,-334.584 h 0.2026 v -89.9175 z" />
    <path
       id="path10"
       fill="#ff2d9b"
       stroke="none"
       d="m 2915.5791,1974.0491 c -27.7957,-96.7991 -106.3347,-189.6883 -235.6736,-264.3618 -329.477,-190.2237 -863.666,-190.2256 -1193.1432,0 -129.3387,74.6733 -207.878,167.5627 -235.6717,264.3638 h -11.4346 v 89.9177 h 0.2024 c 4.2267,121.3564 86.5072,241.9731 246.9078,334.5798 329.4793,190.2256 863.6684,190.2278 1193.1435,0 160.4006,-92.6087 242.6789,-213.2276 246.9038,-334.584 h 0.2026 v -89.9177 z" />
    <path
       id="path11"
       fill="#d3008d"
       stroke="none"
       d="m 2679.9099,2398.55 c -329.4766,190.2234 -863.6655,190.2227 -1193.1443,0 -329.4787,-190.2247 -329.4806,-498.6387 0,-688.8624 329.4767,-190.2233 863.6657,-190.2224 1193.1445,0 329.4787,190.2247 329.4804,498.639 0,688.8623 z" />
    <path
       id="path12"
       fill="#16a4bc"
       stroke="none"
       d="m 1239.6553,1975.1248 v 197.695 c 72.0537,47.4624 54.5741,164.9461 111.8724,229.4541 48.1347,54.1919 129.5149,58.0283 198.3254,80.805 77.7642,25.7404 143.1369,78.3147 211.7758,123.0192 68.639,44.7049 147.3363,83.3628 228.8619,75.4014 90.7355,-8.8613 166.0583,-73.1982 253.3332,-99.552 81.7248,-24.678 169.2029,-14.8752 254.5605,-16.2776 85.3579,-1.4023 177.7493,-17.9663 235.3672,-80.959 35.2634,-38.5529 52.8303,-89.5759 78.1699,-135.2675 25.3401,-45.6914 64.6382,-89.9302 116.5987,-95.3999 0,-2.2671 -0.3587,-6.8536 -0.3587,-9.1211 v -273.4493 c -522.2124,253.8467 -1107.8652,3.6517 -1688.5063,3.6517 z" />
    <g
       id="g5">
      <path
         id="path13"
         fill="#03eef4"
         stroke="none"
         d="m 3264.7014,2542.1345 c -6.4929,28.8755 -15.8369,57.0701 -27.4736,84.3218 l -9.438,20.1167 c -1.4976,3.3948 -3.2996,6.6289 -5.0794,9.8755 l -5.3122,9.7571 -5.3169,9.7605 c -1.8247,3.2224 -3.8709,6.3103 -5.7964,9.4726 -3.9292,6.2752 -7.7742,12.6131 -11.7815,18.8423 -33.1938,49.0628 -72.9426,93.6589 -117.5754,132.5061 -44.554,38.9717 -93.0655,73.2 -143.8147,103.4368 -50.9026,30.0207 -104.0447,56.071 -158.4817,78.8874 l -20.4927,8.377 c -6.8381,2.7739 -13.6282,5.6816 -20.593,8.1155 l -41.5584,15.2522 -42.0646,13.7568 -10.522,3.4255 -10.6218,3.0847 -21.254,6.1434 -21.2578,6.1352 -21.436,5.4534 -21.438,5.4524 -10.7222,2.716 -10.7961,2.3907 -43.1895,9.5581 -43.4521,8.2451 -10.8643,2.0598 c -3.6308,0.6309 -7.2778,1.1643 -10.9165,1.7471 l -21.8435,3.4284 -21.8449,3.4268 c -7.295,1.0439 -14.6163,1.8945 -21.9234,2.8511 l -21.9319,2.7934 c -7.3122,0.9151 -14.6123,1.9444 -21.955,2.5777 l -44.0003,4.3376 c -58.7456,4.8904 -117.6665,7.5266 -176.6169,7.7532 -58.9492,-0.3047 -117.8692,-2.8823 -176.6142,-7.7891 l -43.9997,-4.3364 c -7.3426,-0.6326 -14.6427,-1.6626 -21.9549,-2.5767 l -21.9315,-2.7932 c -7.3067,-0.9565 -14.6279,-1.8069 -21.9229,-2.8508 l -21.8443,-3.4263 -21.8365,-3.4721 -10.9131,-1.7623 -10.864,-2.059 -43.4507,-8.2412 -43.1885,-9.5542 -10.7956,-2.3892 -10.722,-2.7153 -21.4375,-5.4502 -21.4354,-5.4522 -21.2573,-6.1333 -21.2534,-6.1406 -10.6219,-3.0847 -10.5217,-3.4241 c -14.0229,-4.5828 -28.0727,-9.0813 -42.0494,-13.7937 l -41.5574,-15.2463 c -6.9648,-2.4327 -13.7543,-5.3394 -20.5924,-8.1123 l -20.4924,-8.3733 c -54.4297,-22.8191 -107.5927,-48.8238 -158.4671,-78.886 -50.7427,-30.2329 -99.2812,-64.4199 -143.8044,-103.4197 -44.6383,-38.8306 -84.3938,-83.4111 -117.5986,-132.4607 -4.00854,-6.2275 -7.85492,-12.5635 -11.78558,-18.8379 -1.9264,-3.1611 -3.97321,-6.248 -5.79859,-9.4697 l -5.31891,-9.7583 -5.31439,-9.7554 c -1.78094,-3.2458 -3.58343,-6.479 -5.08203,-9.8735 l -9.43536,-20.1162 c -11.64563,-27.2451 -21,-55.4351 -27.50354,-84.3081 -0.48694,-2.1626 0.87115,-4.3103 3.0335,-4.7974 2.12366,-0.4783 4.2334,0.823 4.76966,2.918 7.19153,28.2173 17.1228,55.5512 29.24255,81.8664 l 9.66394,19.4666 c 1.52783,3.2842 3.36133,6.4126 5.17127,9.5522 l 5.39691,9.4324 5.39221,9.4292 c 1.84869,3.1126 3.92059,6.0945 5.86902,9.1472 3.97552,6.0576 7.85913,12.1724 11.90118,18.179 33.49576,47.3091 73.27476,90.1291 117.84396,127.2959 44.321,37.4612 92.4145,70.4143 142.7873,99.375 50.5217,28.7419 103.0193,53.9878 156.9225,75.8279 l 20.2801,8.0327 c 6.7665,2.6601 13.4801,5.4526 20.3779,7.7758 l 41.1242,14.5875 41.5846,13.2495 10.3952,3.3108 10.5011,2.9731 21.0087,5.9214 21.0079,5.9162 21.194,5.2408 21.1914,5.2419 10.5973,2.6121 10.6753,2.2876 42.6968,9.1565 42.9615,7.8567 c 57.4071,9.7265 115.1632,17.5634 173.2195,22.4379 58.0614,4.721 116.2983,7.1426 174.5557,7.3204 58.2563,-0.2549 116.4919,-2.6175 174.5527,-7.3538 58.0508,-4.8989 115.8213,-12.6482 173.207,-22.4905 l 42.9602,-7.8525 42.6958,-9.1516 10.6751,-2.2869 10.5967,-2.6113 21.1909,-5.2395 21.1933,-5.2383 21.0076,-5.9143 21.0083,-5.9192 10.5007,-2.9722 10.3956,-3.3093 41.5698,-13.2861 41.123,-14.5813 c 6.8977,-2.3221 13.6114,-5.1136 20.3775,-7.7723 l 20.28,-8.0292 c 53.8962,-21.8418 106.4143,-47.042 156.9084,-75.8243 50.366,-28.957 98.4871,-61.8691 142.7769,-99.3584 44.5745,-37.1499 84.3606,-79.9546 117.8665,-127.2509 4.0434,-6.0049 7.9284,-12.118 11.9055,-18.1741 1.9487,-3.0525 4.0212,-6.0335 5.8708,-9.1448 l 5.3943,-9.4272 5.3992,-9.4302 c 1.8108,-3.1387 3.6448,-6.2669 5.1733,-9.5505 l 9.6612,-19.4659 c 12.1289,-26.3093 22.0695,-53.6389 29.2526,-81.7802 0.5655,-2.2151 2.7508,-3.512 4.8987,-2.9637 2.1079,0.5381 3.3948,2.6599 2.9231,4.7693 z" />
    </g>
    <g
       id="g6">
      <path
         id="path14"
         fill="#0cc1d1"
         stroke="none"
         d="m 2927.0166,1975.1248 c 0,269.0175 -377.729,487.0993 -843.6807,487.0993 -465.9517,0 -843.6806,-218.0818 -843.6806,-487.0993 0,-269.0176 377.7289,-487.0992 843.6806,-487.0992 465.9517,0 843.6807,218.0816 843.6807,487.0992 z" />
    </g>
    <g
       id="g7">
      <path
         id="path15"
         fill="#03eef4"
         stroke="none"
         d="m 1250.083,2034.5635 c 4.6846,20.072 11.1777,39.7278 19.7721,58.4599 4.1265,9.44 8.9523,18.5599 13.8877,27.5996 5.1625,8.9187 10.4423,17.7781 16.3169,26.2591 11.5185,17.1081 24.5032,33.2209 38.4311,48.4597 13.925,15.2466 28.8304,29.6099 44.5357,43.0544 31.3137,27.0144 65.442,50.7627 101.2311,71.636 35.8021,20.8794 73.2606,38.9285 111.6826,54.5823 19.2147,7.8254 38.678,15.0505 58.3323,21.718 19.6462,6.6919 39.4581,12.9155 59.4377,18.5723 39.953,11.345 80.5414,20.456 121.4409,27.7942 81.849,14.4843 165.0321,21.3977 248.1848,21.3615 83.1529,0.222 166.3665,-6.5053 248.2828,-20.8129 40.9333,-7.25 81.5644,-16.2752 121.5715,-27.5384 20.0066,-5.6164 39.8479,-11.8005 59.5268,-18.4543 19.6875,-6.6299 39.1863,-13.8186 58.4402,-21.6104 38.5003,-15.5857 76.0518,-33.5752 111.9644,-54.4121 35.8999,-20.831 70.1579,-44.5537 101.6242,-71.5776 15.7818,-13.4497 30.7693,-27.8277 44.782,-43.1026 14.0154,-15.2666 27.093,-31.4204 38.708,-48.5896 5.9222,-8.5105 11.251,-17.4055 16.462,-26.3645 4.9848,-9.0803 9.8586,-18.2448 14.0329,-27.736 8.6895,-18.8338 15.2747,-38.6158 20.0376,-58.8326 0.2393,-1.0144 1.2395,-1.633 2.238,-1.3979 0.9773,0.2305 1.5906,1.1973 1.3948,2.1748 -8.3132,41.2844 -25.4026,80.6831 -48.5571,115.8894 -11.4519,17.709 -24.408,34.4136 -38.3359,50.2329 -13.9251,15.8276 -28.8589,30.7612 -44.6099,44.7617 -31.5481,27.9693 -66.0393,52.4659 -102.1443,74.1001 -36.1326,21.6245 -73.9329,40.3667 -112.7117,56.6814 -77.5717,32.7503 -159.1569,55.219 -241.8173,70.3706 -82.7488,14.9632 -166.8216,22.2647 -250.889,22.5428 -84.0673,-0.092 -168.1713,-7.2076 -250.9867,-21.9942 -82.7282,-14.9756 -164.4166,-37.2756 -242.1447,-69.8891 -38.8577,-16.2469 -76.7504,-34.9292 -112.9937,-56.5113 -36.2159,-21.5918 -70.8363,-46.0627 -102.5376,-74.042 -15.827,-14.0051 -30.8432,-28.9531 -44.8562,-44.8091 -14.0155,-15.8474 -27.0646,-32.5932 -38.6128,-50.3632 -23.3449,-35.3252 -40.6424,-74.928 -49.1133,-116.5039 -0.4505,-2.2115 0.9771,-4.3697 3.1885,-4.8201 2.1714,-0.4424 4.2915,0.926 4.794,3.0693 z" />
    </g>
    <g
       id="g8">
      <g
         id="g9"
         style="mix-blend-mode:multiply">
        <path
           id="path16"
           fill="#dbe7f5"
           stroke="none"
           d="m 1160.5245,2387.1572 c -29.4306,16.992 -77.1473,16.9917 -106.5782,0 -29.4308,-16.9919 -29.431,-44.5415 -3e-4,-61.5329 29.4306,-16.992 77.1474,-16.9917 106.5782,2e-4 29.4309,16.9917 29.431,44.541 3e-4,61.5327 z" />
      </g>
      <path
         id="path17"
         fill="none"
         stroke="none"
         style="mix-blend-mode:multiply"
         d="m 1160.5245,2387.1572 c -29.4306,16.992 -77.1473,16.9917 -106.5782,0 -29.4308,-16.9919 -29.431,-44.5415 -3e-4,-61.5329 29.4306,-16.992 77.1474,-16.9917 106.5782,2e-4 29.4309,16.9917 29.431,44.541 3e-4,61.5327 z" />
      <path
         id="path18"
         fill="#1456c9"
         stroke="none"
         d="m 1117.0453,2033.2388 h -87.0995 v 321.0732 c 0,9.1619 6.0507,18.3237 18.1586,25.315 18.646,10.7666 46.1933,13.205 68.9409,7.3901 6.7917,-1.7358 13.1755,-4.1768 18.7433,-7.3901 12.1081,-6.9913 18.161,-16.1509 18.161,-25.3128 v -321.0754 z" />
      <path
         id="path19"
         fill="#326ce5"
         stroke="none"
         d="m 1135.7888,2058.551 c -24.213,13.9795 -63.4703,13.9793 -87.6836,-2e-4 -24.2132,-13.9795 -24.2134,-36.6448 -2e-4,-50.624 24.2131,-13.9795 63.4703,-13.9795 87.6836,2e-4 24.2134,13.9795 24.2135,36.6445 2e-4,50.624 z" />
      <path
         id="path20"
         fill="#ffffff"
         stroke="none"
         d="m 1076.744,1914.207 v 119.0318 c 0,2.2458 1.4844,4.4917 4.4531,6.207 5.9373,3.4265 15.5616,3.4265 21.4989,0 2.9688,-1.7153 4.4529,-3.9612 4.4529,-6.207 V 1914.207 Z" />
      <path
         id="path21"
         fill="#ff7915"
         stroke="none"
         d="m 1051.1101,1804.6228 c 4.317,3.9211 21.99,16.4949 21.99,50.2671 0,30.0256 -27.3287,60.981 -33.4315,91.7339 -0.8192,3.7095 -1.3253,7.5478 -1.3253,11.5058 0,29.3631 23.8032,53.1663 53.1661,53.1663 29.3632,0 53.1664,-23.8032 53.1664,-53.1663 0.8838,-97.8366 -93.5657,-153.5068 -93.5657,-153.5068 z" />
      <path
         id="path22"
         fill="#ffb012"
         stroke="none"
         d="m 1091.3066,1895.5376 c 9.5268,27.9824 -21.4563,41.6421 -23.0302,66.8813 l 0.4326,0.037 c -0.2208,1.2796 -0.7639,2.4392 -0.7639,3.7739 0,12.9051 10.4565,23.3709 23.3615,23.3709 12.9049,0 23.3706,-10.4658 23.3706,-23.3709 0,0 5.4032,-46.5388 -23.3706,-70.6921 z" />
    </g>
    <g
       id="g10">
      <g
         id="g11"
         style="mix-blend-mode:multiply">
        <path
           id="path23"
           fill="#dbe7f5"
           stroke="none"
           d="m 1249.5089,2654.928 c -29.4307,16.9919 -77.1473,16.9919 -106.5782,0 -29.4307,-16.992 -29.4311,-44.5413 -3e-4,-61.533 29.4306,-16.9917 77.1474,-16.9917 106.5781,0 29.431,16.9922 29.4311,44.5413 4e-4,61.533 z" />
      </g>
      <path
         id="path24"
         fill="none"
         stroke="none"
         style="mix-blend-mode:multiply"
         d="m 1249.5089,2654.928 c -29.4307,16.9919 -77.1473,16.9919 -106.5782,0 -29.4307,-16.992 -29.4311,-44.5413 -3e-4,-61.533 29.4306,-16.9917 77.1474,-16.9917 106.5781,0 29.431,16.9922 29.4311,44.5413 4e-4,61.533 z" />
      <path
         id="path25"
         fill="#1456c9"
         stroke="none"
         d="m 1206.0297,2301.0098 h -87.0995 v 321.0727 c 0,9.1621 6.0506,18.3242 18.1585,25.3152 18.646,10.7666 46.1934,13.2048 68.941,7.3901 6.7917,-1.736 13.1754,-4.1765 18.7432,-7.3901 12.1082,-6.991 18.1611,-16.1506 18.1611,-25.3127 v -321.0752 z" />
      <path
         id="path26"
         fill="#326ce5"
         stroke="none"
         d="m 1224.7732,2326.3218 c -24.213,13.9795 -63.4703,13.9795 -87.6835,-3e-4 -24.2134,-13.9795 -24.2135,-36.6447 -3e-4,-50.624 24.2131,-13.9795 63.4703,-13.9792 87.6835,3e-4 24.2134,13.9794 24.2136,36.6445 3e-4,50.624 z" />
      <path
         id="path27"
         fill="#ffffff"
         stroke="none"
         d="m 1165.7284,2181.9775 v 119.0323 c 0,2.2456 1.4844,4.4914 4.4531,6.207 5.9373,3.4263 15.5617,3.4263 21.4989,0 2.9688,-1.7156 4.4529,-3.9614 4.4529,-6.207 v -119.0323 z" />
      <path
         id="path28"
         fill="#ff7915"
         stroke="none"
         d="m 1140.0945,2072.3936 c 4.3169,3.9211 21.99,16.4948 21.99,50.267 0,30.0254 -27.3288,60.981 -33.4315,91.7339 -0.8193,3.7095 -1.3254,7.5479 -1.3254,11.5059 0,29.363 23.8033,53.1665 53.1662,53.1665 29.3631,0 53.1664,-23.8035 53.1664,-53.1665 0.8836,-97.8367 -93.5657,-153.5068 -93.5657,-153.5068 z" />
      <path
         id="path29"
         fill="#ffb012"
         stroke="none"
         d="m 1180.291,2163.3086 c 9.5267,27.9822 -21.4563,41.6418 -23.0303,66.8813 l 0.4327,0.037 c -0.2209,1.2795 -0.764,2.4394 -0.764,3.7739 0,12.905 10.4566,23.3706 23.3616,23.3706 12.9049,0 23.3706,-10.4656 23.3706,-23.3706 0,0 5.4032,-46.5391 -23.3706,-70.6919 z" />
    </g>
    <g
       id="g12">
      <g
         id="g13"
         style="mix-blend-mode:multiply">
        <path
           id="path30"
           fill="#dbe7f5"
           stroke="none"
           d="m 1445.3828,2857.8486 c -29.4307,16.9922 -77.1473,16.9917 -106.5782,0 -29.4307,-16.9922 -29.4309,-44.5412 -3e-4,-61.5329 29.4307,-16.992 77.1474,-16.9917 106.5781,2e-4 29.431,16.992 29.4311,44.541 4e-4,61.5327 z" />
      </g>
      <path
         id="path31"
         fill="none"
         stroke="none"
         style="mix-blend-mode:multiply"
         d="m 1445.3828,2857.8486 c -29.4307,16.9922 -77.1473,16.9917 -106.5782,0 -29.4307,-16.9922 -29.4309,-44.5412 -3e-4,-61.5329 29.4307,-16.992 77.1474,-16.9917 106.5781,2e-4 29.431,16.992 29.4311,44.541 4e-4,61.5327 z" />
      <path
         id="path32"
         fill="#1456c9"
         stroke="none"
         d="m 1401.9037,2503.9302 h -87.0996 v 321.0732 c 0,9.1619 6.0506,18.3242 18.1585,25.315 18.646,10.7666 46.1934,13.205 68.9411,7.3901 6.7916,-1.7358 13.1754,-4.1765 18.7432,-7.3901 12.1081,-6.9908 18.1611,-16.1509 18.1611,-25.3125 v -321.0757 z" />
      <path
         id="path33"
         fill="#326ce5"
         stroke="none"
         d="m 1420.6472,2529.2427 c -24.2131,13.9792 -63.4704,13.9792 -87.6836,-5e-4 -24.2134,-13.9795 -24.2135,-36.6445 -2e-4,-50.624 24.213,-13.9795 63.4702,-13.9795 87.6835,0 24.2133,13.9795 24.2135,36.6447 3e-4,50.6245 z" />
      <path
         id="path34"
         fill="#ffffff"
         stroke="none"
         d="m 1361.6023,2384.8984 v 119.0318 c 0,2.2461 1.4844,4.4917 4.4531,6.207 5.9373,3.4265 15.5617,3.4265 21.4989,0 2.9688,-1.7153 4.453,-3.9609 4.453,-6.207 v -119.0318 z" />
      <path
         id="path35"
         fill="#ff7915"
         stroke="none"
         d="m 1335.9684,2275.3142 c 4.317,3.9212 21.99,16.4949 21.99,50.2669 0,30.0258 -27.3288,60.9812 -33.4315,91.7341 -0.8193,3.7095 -1.3254,7.5478 -1.3254,11.5061 0,29.3628 23.8033,53.166 53.1663,53.166 29.363,0 53.1664,-23.8032 53.1664,-53.166 0.8836,-97.8369 -93.5658,-153.5071 -93.5658,-153.5071 z" />
      <path
         id="path36"
         fill="#ffb012"
         stroke="none"
         d="m 1376.1649,2366.229 c 9.5268,27.9824 -21.4562,41.6421 -23.0301,66.8814 l 0.4326,0.037 c -0.221,1.2793 -0.7641,2.4392 -0.7641,3.7734 0,12.9053 10.4567,23.3711 23.3616,23.3711 12.905,0 23.3706,-10.4658 23.3706,-23.3711 0,0 5.4032,-46.5386 -23.3706,-70.6919 z" />
    </g>
    <g
       id="g14">
      <g
         id="g15"
         style="mix-blend-mode:multiply">
        <path
           id="path37"
           fill="#dbe7f5"
           stroke="none"
           d="m 1708.2212,2961.6411 c -29.4308,16.9917 -77.1475,16.9917 -106.5784,0 -29.4306,-16.9919 -29.4309,-44.5412 -2e-4,-61.5332 29.4306,-16.9917 77.1473,-16.9917 106.5782,3e-4 29.4308,16.9919 29.4309,44.5412 4e-4,61.5329 z" />
      </g>
      <path
         id="path38"
         fill="none"
         stroke="none"
         style="mix-blend-mode:multiply"
         d="m 1708.2212,2961.6411 c -29.4308,16.9917 -77.1475,16.9917 -106.5784,0 -29.4306,-16.9919 -29.4309,-44.5412 -2e-4,-61.5332 29.4306,-16.9917 77.1473,-16.9917 106.5782,3e-4 29.4308,16.9919 29.4309,44.5412 4e-4,61.5329 z" />
      <path
         id="path39"
         fill="#1456c9"
         stroke="none"
         d="m 1664.7418,2607.7227 h -87.0995 v 321.0732 c 0,9.1621 6.0507,18.3237 18.1586,25.3149 18.646,10.7666 46.1934,13.2051 68.9409,7.3902 6.7918,-1.7359 13.1756,-4.1768 18.7434,-7.3902 12.1081,-6.9912 18.161,-16.1506 18.161,-25.3127 v -321.0754 z" />
      <path
         id="path40"
         fill="#326ce5"
         stroke="none"
         d="m 1683.4855,2633.0349 c -24.213,13.9793 -63.4705,13.9793 -87.6836,-2e-4 -24.2134,-13.9795 -24.2135,-36.6448 -3e-4,-50.6241 24.213,-13.9797 63.4704,-13.9794 87.6836,0 24.2133,13.9795 24.2134,36.6451 3e-4,50.6243 z" />
      <path
         id="path41"
         fill="#ffffff"
         stroke="none"
         d="m 1624.4407,2488.6909 v 119.0318 c 0,2.2456 1.4842,4.4917 4.453,6.207 5.9372,3.4265 15.5616,3.4265 21.499,0 2.9686,-1.7153 4.4529,-3.9614 4.4529,-6.207 v -119.0318 z" />
      <path
         id="path42"
         fill="#ff7915"
         stroke="none"
         d="m 1598.8066,2379.1067 c 4.3171,3.9211 21.99,16.4949 21.99,50.2668 0,30.0259 -27.3287,60.981 -33.4314,91.7342 -0.8193,3.7092 -1.3254,7.5476 -1.3254,11.5058 0,29.3631 23.8033,53.1663 53.1663,53.1663 29.363,0 53.1663,-23.8032 53.1663,-53.1663 0.8837,-97.8366 -93.5658,-153.5068 -93.5658,-153.5068 z" />
      <path
         id="path43"
         fill="#ffb012"
         stroke="none"
         d="m 1639.0032,2470.0215 c 9.5268,27.9824 -21.4562,41.6421 -23.0303,66.8813 l 0.4327,0.037 c -0.2209,1.2797 -0.764,2.4394 -0.764,3.7741 0,12.9051 10.4567,23.3709 23.3616,23.3709 12.905,0 23.3707,-10.4658 23.3707,-23.3709 0,0 5.4031,-46.5388 -23.3707,-70.6921 z" />
    </g>
    <g
       id="g16">
      <g
         id="g17"
         style="mix-blend-mode:multiply">
        <path
           id="path44"
           fill="#dbe7f5"
           stroke="none"
           d="m 1984.7938,3022.6665 c -29.4306,16.9919 -77.1474,16.9917 -106.5782,0 -29.4308,-16.9919 -29.4311,-44.5415 -3e-4,-61.5332 29.4306,-16.9917 77.1474,-16.9917 106.5782,5e-4 29.4309,16.9917 29.431,44.541 3e-4,61.5327 z" />
      </g>
      <path
         id="path45"
         fill="none"
         stroke="none"
         style="mix-blend-mode:multiply"
         d="m 1984.7938,3022.6665 c -29.4306,16.9919 -77.1474,16.9917 -106.5782,0 -29.4308,-16.9919 -29.4311,-44.5415 -3e-4,-61.5332 29.4306,-16.9917 77.1474,-16.9917 106.5782,5e-4 29.4309,16.9917 29.431,44.541 3e-4,61.5327 z" />
      <path
         id="path46"
         fill="#1456c9"
         stroke="none"
         d="m 1941.3146,2668.748 h -87.0995 v 321.0733 c 0,9.1619 6.0505,18.324 18.1586,25.3149 18.646,10.7666 46.1933,13.2051 68.9409,7.3899 6.7917,-1.7356 13.1755,-4.1762 18.7433,-7.3899 12.1081,-6.9909 18.161,-16.1508 18.161,-25.3127 V 2668.748 Z" />
      <path
         id="path47"
         fill="#326ce5"
         stroke="none"
         d="m 1960.0581,2694.0605 c -24.213,13.9791 -63.4703,13.9791 -87.6835,-4e-4 -24.2133,-13.9795 -24.2135,-36.6446 -3e-4,-50.6241 24.2131,-13.9795 63.4703,-13.9795 87.6836,3e-4 24.2132,13.9792 24.2133,36.6445 2e-4,50.6242 z" />
      <path
         id="path48"
         fill="#ffffff"
         stroke="none"
         d="m 1901.0133,2549.7163 v 119.0317 c 0,2.2459 1.4844,4.4917 4.4531,6.2071 5.9373,3.4262 15.5616,3.4262 21.4989,0 2.9688,-1.7154 4.4529,-3.9612 4.4529,-6.2071 v -119.0317 z" />
      <path
         id="path49"
         fill="#ff7915"
         stroke="none"
         d="m 1875.3794,2440.1318 c 4.3169,3.9214 21.99,16.4952 21.99,50.2671 0,30.0259 -27.3288,60.981 -33.4315,91.7342 -0.8192,3.7094 -1.3254,7.5478 -1.3254,11.5061 0,29.3628 23.8033,53.166 53.1662,53.166 29.3631,0 53.1664,-23.8032 53.1664,-53.166 0.8836,-97.837 -93.5657,-153.5074 -93.5657,-153.5074 z" />
      <path
         id="path50"
         fill="#ffb012"
         stroke="none"
         d="m 1915.5759,2531.0469 c 9.5268,27.9824 -21.4563,41.6421 -23.0302,66.8813 l 0.4326,0.037 c -0.2209,1.2795 -0.7639,2.4394 -0.7639,3.7742 0,12.9047 10.4565,23.3706 23.3615,23.3706 12.9049,0 23.3706,-10.4659 23.3706,-23.3706 0,0 5.4032,-46.5391 -23.3706,-70.6924 z" />
    </g>
    <g
       id="g18">
      <g
         id="g19"
         style="mix-blend-mode:multiply">
        <path
           id="path51"
           fill="#dbe7f5"
           stroke="none"
           d="m 3143.7095,2387.1572 c -29.4307,16.992 -77.1475,16.9917 -106.5782,0 -29.4309,-16.9919 -29.4311,-44.5415 -4e-4,-61.5329 29.4306,-16.992 77.1472,-16.9917 106.5781,2e-4 29.4309,16.9917 29.4311,44.541 5e-4,61.5327 z" />
      </g>
      <path
         id="path52"
         fill="none"
         stroke="none"
         style="mix-blend-mode:multiply"
         d="m 3143.7095,2387.1572 c -29.4307,16.992 -77.1475,16.9917 -106.5782,0 -29.4309,-16.9919 -29.4311,-44.5415 -4e-4,-61.5329 29.4306,-16.992 77.1472,-16.9917 106.5781,2e-4 29.4309,16.9917 29.4311,44.541 5e-4,61.5327 z" />
      <path
         id="path53"
         fill="#1456c9"
         stroke="none"
         d="m 3100.2305,2033.2388 h -87.0999 v 321.0732 c 0,9.1619 6.0508,18.3237 18.1587,25.315 18.646,10.7666 46.1934,13.205 68.9412,7.3901 6.7915,-1.7358 13.175,-4.1768 18.7431,-7.3901 12.1079,-6.9913 18.1609,-16.1509 18.1609,-25.3128 v -321.0754 z" />
      <path
         id="path54"
         fill="#326ce5"
         stroke="none"
         d="m 3118.9739,2058.551 c -24.2129,13.9795 -63.4705,13.9793 -87.6836,-2e-4 -24.2134,-13.9795 -24.2136,-36.6448 -5e-4,-50.624 24.2134,-13.9795 63.4705,-13.9795 87.6838,2e-4 24.2134,13.9795 24.2134,36.6445 3e-4,50.624 z" />
      <path
         id="path55"
         fill="#ffffff"
         stroke="none"
         d="m 3059.929,1914.207 v 119.0318 c 0,2.2458 1.4843,4.4917 4.4531,6.207 5.9372,3.4265 15.5615,3.4265 21.499,0 2.9685,-1.7153 4.4526,-3.9612 4.4526,-6.207 V 1914.207 Z" />
      <path
         id="path56"
         fill="#ff7915"
         stroke="none"
         d="m 3034.2949,1804.6228 c 4.3172,3.9211 21.9903,16.4949 21.9903,50.2671 0,30.0256 -27.3289,60.981 -33.4317,91.7339 -0.8191,3.7095 -1.3254,7.5478 -1.3254,11.5058 0,29.3631 23.8034,53.1663 53.1662,53.1663 29.3633,0 53.1665,-23.8032 53.1665,-53.1663 0.8836,-97.8366 -93.5659,-153.5068 -93.5659,-153.5068 z" />
      <path
         id="path57"
         fill="#ffb012"
         stroke="none"
         d="m 3074.4917,1895.5376 c 9.5269,27.9824 -21.4563,41.6421 -23.0303,66.8813 l 0.4326,0.037 c -0.2209,1.2796 -0.7639,2.4392 -0.7639,3.7739 0,12.9051 10.4566,23.3709 23.3616,23.3709 12.9048,0 23.3706,-10.4658 23.3706,-23.3709 0,0 5.4031,-46.5388 -23.3706,-70.6921 z" />
    </g>
    <g
       id="g20">
      <g
         id="g21"
         style="mix-blend-mode:multiply">
        <path
           id="path58"
           fill="#dbe7f5"
           stroke="none"
           d="m 3089.1179,2654.928 c -29.4306,16.9919 -77.1474,16.9919 -106.5783,0 -29.4307,-16.992 -29.431,-44.5413 -3e-4,-61.533 29.4307,-16.9917 77.1472,-16.9917 106.5781,0 29.4309,16.9922 29.4312,44.5413 5e-4,61.533 z" />
      </g>
      <path
         id="path59"
         fill="none"
         stroke="none"
         style="mix-blend-mode:multiply"
         d="m 3089.1179,2654.928 c -29.4306,16.9919 -77.1474,16.9919 -106.5783,0 -29.4307,-16.992 -29.431,-44.5413 -3e-4,-61.533 29.4307,-16.9917 77.1472,-16.9917 106.5781,0 29.4309,16.9922 29.4312,44.5413 5e-4,61.533 z" />
      <path
         id="path60"
         fill="#1456c9"
         stroke="none"
         d="m 3045.6387,2301.0098 h -87.0996 v 321.0727 c 0,9.1621 6.0505,18.3242 18.1587,25.3152 18.646,10.7666 46.1931,13.2048 68.9409,7.3901 6.7917,-1.736 13.1755,-4.1765 18.7431,-7.3901 12.1082,-6.991 18.1612,-16.1506 18.1612,-25.3127 v -321.0752 z" />
      <path
         id="path61"
         fill="#326ce5"
         stroke="none"
         d="m 3064.3821,2326.3218 c -24.2129,13.9795 -63.4705,13.9795 -87.6836,-3e-4 -24.2131,-13.9795 -24.2134,-36.6447 -3e-4,-50.624 24.2132,-13.9795 63.4705,-13.9792 87.6836,3e-4 24.2134,13.9794 24.2134,36.6445 3e-4,50.624 z" />
      <path
         id="path62"
         fill="#ffffff"
         stroke="none"
         d="m 3005.3372,2181.9775 v 119.0323 c 0,2.2456 1.4846,4.4914 4.4531,6.207 5.9375,3.4263 15.5618,3.4263 21.499,0 2.9688,-1.7156 4.4529,-3.9614 4.4529,-6.207 v -119.0323 z" />
      <path
         id="path63"
         fill="#ff7915"
         stroke="none"
         d="m 2979.7034,2072.3936 c 4.3169,3.9211 21.99,16.4948 21.99,50.267 0,30.0254 -27.3287,60.981 -33.4314,91.7339 -0.8194,3.7095 -1.3255,7.5479 -1.3255,11.5059 0,29.363 23.8032,53.1665 53.1663,53.1665 29.363,0 53.1662,-23.8035 53.1662,-53.1665 0.8838,-97.8367 -93.5656,-153.5068 -93.5656,-153.5068 z" />
      <path
         id="path64"
         fill="#ffb012"
         stroke="none"
         d="m 3019.8999,2163.3086 c 9.5269,27.9822 -21.4563,41.6418 -23.0303,66.8813 l 0.4326,0.037 c -0.2207,1.2795 -0.7639,2.4394 -0.7639,3.7739 0,12.905 10.4566,23.3706 23.3616,23.3706 12.905,0 23.3706,-10.4656 23.3706,-23.3706 0,0 5.4033,-46.5391 -23.3706,-70.6919 z" />
    </g>
    <g
       id="g22">
      <g
         id="g23"
         style="mix-blend-mode:multiply">
        <path
           id="path65"
           fill="#dbe7f5"
           stroke="none"
           d="m 2842.3174,2857.8486 c -29.4307,16.9922 -77.1475,16.9917 -106.5784,0 -29.4304,-16.9922 -29.4309,-44.5412 -2e-4,-61.5329 29.4306,-16.992 77.1474,-16.9917 106.5783,2e-4 29.4309,16.992 29.4309,44.541 3e-4,61.5327 z" />
      </g>
      <path
         id="path66"
         fill="none"
         stroke="none"
         style="mix-blend-mode:multiply"
         d="m 2842.3174,2857.8486 c -29.4307,16.9922 -77.1475,16.9917 -106.5784,0 -29.4304,-16.9922 -29.4309,-44.5412 -2e-4,-61.5329 29.4306,-16.992 77.1474,-16.9917 106.5783,2e-4 29.4309,16.992 29.4309,44.541 3e-4,61.5327 z" />
      <path
         id="path67"
         fill="#1456c9"
         stroke="none"
         d="m 2798.8384,2503.9302 h -87.0996 v 321.0732 c 0,9.1619 6.0505,18.3242 18.1584,25.315 18.646,10.7666 46.1934,13.205 68.9412,7.3901 6.7915,-1.7358 13.1753,-4.1765 18.7431,-7.3901 12.1082,-6.9908 18.1609,-16.1509 18.1609,-25.3125 v -321.0757 z" />
      <path
         id="path68"
         fill="#326ce5"
         stroke="none"
         d="m 2817.5818,2529.2427 c -24.2131,13.9792 -63.4705,13.9792 -87.6836,-5e-4 -24.2134,-13.9795 -24.2134,-36.6445 -3e-4,-50.624 24.2129,-13.9795 63.4703,-13.9795 87.6836,0 24.2134,13.9795 24.2134,36.6447 3e-4,50.6245 z" />
      <path
         id="path69"
         fill="#ffffff"
         stroke="none"
         d="m 2758.5369,2384.8984 v 119.0318 c 0,2.2461 1.4843,4.4917 4.4531,6.207 5.9372,3.4265 15.5615,3.4265 21.499,0 2.9685,-1.7153 4.4529,-3.9609 4.4529,-6.207 v -119.0318 z" />
      <path
         id="path70"
         fill="#ff7915"
         stroke="none"
         d="m 2732.9028,2275.3142 c 4.3172,3.9212 21.9903,16.4949 21.9903,50.2669 0,30.0258 -27.3289,60.9812 -33.4317,91.7341 -0.8191,3.7095 -1.3252,7.5478 -1.3252,11.5061 0,29.3628 23.8033,53.166 53.166,53.166 29.3633,0 53.1666,-23.8032 53.1666,-53.166 0.8835,-97.8369 -93.566,-153.5071 -93.566,-153.5071 z" />
      <path
         id="path71"
         fill="#ffb012"
         stroke="none"
         d="m 2773.0996,2366.229 c 9.5266,27.9824 -21.4563,41.6421 -23.0303,66.8814 l 0.4327,0.037 c -0.221,1.2793 -0.7642,2.4392 -0.7642,3.7734 0,12.9053 10.4568,23.3711 23.3618,23.3711 12.9048,0 23.3706,-10.4658 23.3706,-23.3711 0,0 5.4031,-46.5386 -23.3706,-70.6919 z" />
    </g>
    <g
       id="g24">
      <g
         id="g25"
         style="mix-blend-mode:multiply">
        <path
           id="path72"
           fill="#dbe7f5"
           stroke="none"
           d="m 2540.5901,2961.6411 c -29.4307,16.9917 -77.1475,16.9917 -106.5784,0 -29.4304,-16.9919 -29.4309,-44.5412 -2e-4,-61.5332 29.4306,-16.9917 77.1474,-16.9917 106.5783,3e-4 29.431,16.9919 29.431,44.5412 3e-4,61.5329 z" />
      </g>
      <path
         id="path73"
         fill="none"
         stroke="none"
         style="mix-blend-mode:multiply"
         d="m 2540.5901,2961.6411 c -29.4307,16.9917 -77.1475,16.9917 -106.5784,0 -29.4304,-16.9919 -29.4309,-44.5412 -2e-4,-61.5332 29.4306,-16.9917 77.1474,-16.9917 106.5783,3e-4 29.431,16.9919 29.431,44.5412 3e-4,61.5329 z" />
      <path
         id="path74"
         fill="#1456c9"
         stroke="none"
         d="m 2497.1108,2607.7227 h -87.0993 v 321.0732 c 0,9.1621 6.0505,18.3237 18.1584,25.3149 18.646,10.7666 46.1934,13.2051 68.9409,7.3902 6.7918,-1.7359 13.1756,-4.1768 18.7432,-7.3902 12.1084,-6.9912 18.1611,-16.1506 18.1611,-25.3127 v -321.0754 z" />
      <path
         id="path75"
         fill="#326ce5"
         stroke="none"
         d="m 2515.8545,2633.0349 c -24.2131,13.9793 -63.4705,13.9793 -87.6836,-2e-4 -24.2134,-13.9795 -24.2134,-36.6448 -2e-4,-50.6241 24.2128,-13.9797 63.4702,-13.9794 87.6833,0 24.2136,13.9795 24.2136,36.6451 5e-4,50.6243 z" />
      <path
         id="path76"
         fill="#ffffff"
         stroke="none"
         d="m 2456.8096,2488.6909 v 119.0318 c 0,2.2456 1.4843,4.4917 4.4531,6.207 5.9373,3.4265 15.5615,3.4265 21.499,0 2.9685,-1.7153 4.4529,-3.9614 4.4529,-6.207 v -119.0318 z" />
      <path
         id="path77"
         fill="#ff7915"
         stroke="none"
         d="m 2431.1755,2379.1067 c 4.3172,3.9211 21.9903,16.4949 21.9903,50.2668 0,30.0259 -27.3289,60.981 -33.4317,91.7342 -0.8193,3.7092 -1.3252,7.5476 -1.3252,11.5058 0,29.3631 23.803,53.1663 53.1661,53.1663 29.3632,0 53.1665,-23.8032 53.1665,-53.1663 0.8835,-97.8366 -93.566,-153.5068 -93.566,-153.5068 z" />
      <path
         id="path78"
         fill="#ffb012"
         stroke="none"
         d="m 2471.3723,2470.0215 c 9.5266,27.9824 -21.4563,41.6421 -23.0303,66.8813 l 0.4327,0.037 c -0.221,1.2797 -0.7642,2.4394 -0.7642,3.7741 0,12.9051 10.4568,23.3709 23.3618,23.3709 12.9048,0 23.3706,-10.4658 23.3706,-23.3709 0,0 5.4031,-46.5388 -23.3706,-70.6921 z" />
    </g>
    <g
       id="g26">
      <g
         id="g27"
         style="mix-blend-mode:multiply">
        <path
           id="path79"
           fill="#dbe7f5"
           stroke="none"
           d="m 2272.5371,3022.6665 c -29.4307,16.9919 -77.1472,16.9917 -106.5781,0 -29.4307,-16.9919 -29.4309,-44.5415 -3e-4,-61.5332 29.4307,-16.9917 77.1473,-16.9917 106.5782,5e-4 29.4309,16.9917 29.4309,44.541 2e-4,61.5327 z" />
      </g>
      <path
         id="path80"
         fill="none"
         stroke="none"
         style="mix-blend-mode:multiply"
         d="m 2272.5371,3022.6665 c -29.4307,16.9919 -77.1472,16.9917 -106.5781,0 -29.4307,-16.9919 -29.4309,-44.5415 -3e-4,-61.5332 29.4307,-16.9917 77.1473,-16.9917 106.5782,5e-4 29.4309,16.9917 29.4309,44.541 2e-4,61.5327 z" />
      <path
         id="path81"
         fill="#1456c9"
         stroke="none"
         d="m 2229.0579,2668.748 h -87.0994 v 321.0733 c 0,9.1619 6.0505,18.324 18.1587,25.3149 18.6457,10.7666 46.1931,13.2051 68.9407,7.3899 6.792,-1.7356 13.1755,-4.1762 18.7434,-7.3899 12.1081,-6.9909 18.1611,-16.1508 18.1611,-25.3127 V 2668.748 Z" />
      <path
         id="path82"
         fill="#326ce5"
         stroke="none"
         d="m 2247.8015,2694.0605 c -24.2129,13.9791 -63.4704,13.9791 -87.6836,-4e-4 -24.2131,-13.9795 -24.2134,-36.6446 -2e-4,-50.6241 24.2131,-13.9795 63.4704,-13.9795 87.6836,3e-4 24.2133,13.9792 24.2133,36.6445 2e-4,50.6242 z" />
      <path
         id="path83"
         fill="#ffffff"
         stroke="none"
         d="m 2188.7566,2549.7163 v 119.0317 c 0,2.2459 1.4846,4.4917 4.4531,6.2071 5.9373,3.4262 15.5618,3.4262 21.499,0 2.9688,-1.7154 4.4529,-3.9612 4.4529,-6.2071 v -119.0317 z" />
      <path
         id="path84"
         fill="#ff7915"
         stroke="none"
         d="m 2163.1226,2440.1318 c 4.3171,3.9214 21.9902,16.4952 21.9902,50.2671 0,30.0259 -27.3289,60.981 -33.4316,91.7342 -0.8191,3.7094 -1.3252,7.5478 -1.3252,11.5061 0,29.3628 23.8032,53.166 53.166,53.166 29.3633,0 53.1665,-23.8032 53.1665,-53.166 0.8838,-97.837 -93.5659,-153.5074 -93.5659,-153.5074 z" />
      <path
         id="path85"
         fill="#ffb012"
         stroke="none"
         d="m 2203.3193,2531.0469 c 9.5269,27.9824 -21.4563,41.6421 -23.0302,66.8813 l 0.4326,0.037 c -0.221,1.2795 -0.7639,2.4394 -0.7639,3.7742 0,12.9047 10.4565,23.3706 23.3615,23.3706 12.9051,0 23.3706,-10.4659 23.3706,-23.3706 0,0 5.4031,-46.5391 -23.3706,-70.6924 z" />
    </g>
    <g
       id="g3">
      <path
         id="path3055"
         fill="#326ce5"
         stroke="none"
         d="m 2065.0903,876.57446 c -12.7375,0.6416 -25.2179,3.79981 -36.7085,9.28906 l -500.9156,239.34278 c -26.263,12.5425 -45.3388,36.2634 -51.8278,64.4485 l -123.5792,537.624 c -5.7653,25.0259 -1.0742,51.3003 13.005,72.8408 1.6897,2.6065 3.5071,5.1292 5.4454,7.5596 l 346.7139,431.0859 c 18.1797,22.5962 45.7435,35.7532 74.8906,35.7476 l 556.0107,-0.1279 c 29.1362,0.021 56.6982,-13.1114 74.8906,-35.6836 l 346.5857,-431.1502 c 18.1894,-22.6076 25.0046,-52.2021 18.5144,-80.4004 l -123.7713,-537.624 c -6.489,-28.185 -25.5647,-51.906 -51.8276,-64.4482 L 2111.5369,885.86352 c -14.4536,-6.90502 -30.4244,-10.09936 -46.4466,-9.28906 z" />
      <path
         id="path3059"
         fill="#ffffff"
         stroke="none"
         d="m 2070.054,1059.5349 c -16.5582,0 -29.9839,14.916 -29.982,33.3132 0,0.2825 0.058,0.5523 0.064,0.8328 -0.024,2.5 -0.1451,5.5112 -0.064,7.6878 0.3949,10.611 2.7079,18.7321 4.1001,28.5085 2.5221,20.9241 4.6355,38.2688 3.3313,54.3901 -1.2683,6.0794 -5.746,11.639 -9.7378,15.5035 l -0.7046,12.6848 c -17.9929,1.4907 -36.106,4.2204 -54.1981,8.3281 -77.8496,17.676 -144.8768,57.7766 -195.9073,111.9197 -3.3113,-2.2588 -9.1044,-6.4148 -10.8269,-7.6875 -5.3531,0.7229 -10.7632,2.3745 -17.8099,-1.7298 -13.4172,-9.0317 -25.6375,-21.4987 -40.4243,-36.5166 -6.7754,-7.1836 -11.6817,-14.0241 -19.7317,-20.9487 -1.828,-1.5725 -4.6178,-3.6995 -6.6626,-5.3174 -6.2934,-5.0176 -13.7161,-7.6343 -20.8847,-7.8799 -9.2169,-0.3156 -18.0895,3.2881 -23.8959,10.5706 -10.3225,12.9468 -7.0176,32.7353 7.3673,44.2041 0.146,0.1162 0.3014,0.2065 0.4484,0.3203 1.9768,1.6023 4.3973,3.6555 6.2142,4.9971 8.5424,6.3071 16.3455,9.5356 24.8568,14.5425 17.9318,11.0739 32.7974,20.2563 44.5885,31.3271 4.6044,4.9082 5.4092,13.5569 6.022,17.2974 l 9.6096,8.5847 c -51.4426,77.4172 -75.2507,173.043 -61.1809,270.4778 l -12.5565,3.6513 c -3.3093,4.2737 -7.9859,10.9981 -12.877,13.0052 -15.4268,4.8591 -32.7889,6.6433 -53.7496,8.8408 -9.8408,0.8181 -18.3319,0.3301 -28.7646,2.3064 -2.2963,0.4348 -5.4957,1.2683 -8.0081,1.8576 -0.087,0.018 -0.1689,0.045 -0.2562,0.064 -0.1371,0.032 -0.3169,0.098 -0.4485,0.1279 -17.6716,4.2698 -29.0239,20.5129 -25.3693,36.5166 3.6557,16.0073 20.9169,25.7419 38.6946,21.9099 0.1284,-0.03 0.3147,-0.034 0.4485,-0.064 0.2007,-0.046 0.3773,-0.1433 0.5765,-0.1921 2.4783,-0.544 5.5839,-1.1492 7.7517,-1.7297 10.2571,-2.7461 17.6857,-6.7813 26.9069,-10.3143 19.8381,-7.1152 36.2688,-13.059 52.2761,-15.3752 6.6856,-0.5237 13.7294,4.125 17.2333,6.0859 l 13.069,-2.2421 c 30.0746,93.2419 93.101,168.6059 172.9084,215.8955 l -5.4454,13.0688 c 1.9627,5.0747 4.1277,11.9409 2.6655,16.9524 -5.8195,15.0908 -15.7873,31.0193 -27.1379,48.7771 -5.4959,8.2041 -11.1205,14.571 -16.08,23.96 -1.1869,2.2465 -2.6982,5.6977 -3.8439,8.072 -7.7056,16.487 -2.0534,35.4765 12.7488,42.6025 14.8952,7.1709 33.3839,-0.3923 41.3853,-16.9128 0.012,-0.023 0.053,-0.041 0.064,-0.064 0.01,-0.018 -0.01,-0.046 0,-0.064 1.1396,-2.3423 2.7542,-5.4211 3.7157,-7.6235 4.2479,-9.7317 5.6613,-18.0713 8.6485,-27.4834 7.933,-19.9268 12.2915,-40.835 23.2118,-53.8633 2.9905,-3.5676 7.8657,-4.9395 12.9204,-6.293 l 6.7907,-12.3 c 69.5749,26.7053 147.4528,33.8716 225.2487,16.208 17.7471,-4.0296 34.8804,-9.2446 51.4432,-15.5034 1.9087,3.3852 5.4555,9.893 6.4065,11.5315 5.1367,1.6711 10.7431,2.5341 15.3112,9.2893 8.1702,13.9587 13.7578,30.4721 20.5645,50.4182 2.9878,9.4121 4.4643,17.7522 8.7126,27.4836 0.9685,2.218 2.575,5.3401 3.7159,7.6875 7.9846,16.5742 26.5319,24.1634 41.4494,16.9771 14.8003,-7.1299 20.4588,-26.1175 12.7486,-42.6026 -1.1458,-2.3742 -2.721,-5.8256 -3.908,-8.072 -4.96,-9.3889 -10.5837,-15.6921 -16.0801,-23.8957 -11.3515,-17.7574 -20.7661,-32.5093 -26.5864,-47.5996 -2.4336,-7.7833 0.4104,-12.6238 2.3064,-17.6817 -1.1353,-1.3013 -3.5647,-8.6514 -4.9971,-12.1081 82.9395,-48.9717 144.1153,-127.1465 172.8445,-217.4331 3.8794,0.6098 10.6226,1.8027 12.8127,2.2424 4.5091,-2.9739 8.6553,-6.8543 16.7847,-6.2141 16.0076,2.3152 32.4378,8.261 52.2764,15.3752 9.2214,3.5325 16.6496,7.6326 26.9067,10.3784 2.168,0.5804 5.2735,1.1216 7.7517,1.6656 0.1995,0.049 0.3758,0.1464 0.5767,0.1921 0.1338,0.03 0.3201,0.034 0.4482,0.064 17.7788,3.8274 35.0432,-5.9016 38.6949,-21.9099 3.6506,-16.0047 -7.6966,-32.2515 -25.3694,-36.5166 -2.5706,-0.5845 -6.2163,-1.5772 -8.7127,-2.0499 -10.4328,-1.976 -18.9238,-1.4887 -28.7646,-2.3064 -20.961,-2.1965 -38.3228,-3.9826 -53.7498,-8.8408 -6.29,-2.4402 -10.7646,-9.9248 -12.9409,-13.0051 l -12.1082,-3.5234 c 6.2779,-45.4175 4.5852,-92.6851 -6.2783,-139.9795 -10.9643,-47.7346 -30.3413,-91.3928 -56.1838,-129.8574 3.1057,-2.8238 8.9712,-8.0179 10.6345,-9.5457 0.4863,-5.3796 0.069,-11.02 5.6377,-16.9771 11.7903,-11.0715 26.6572,-20.2522 44.5884,-31.3271 8.511,-5.0073 16.3789,-8.2349 24.9206,-14.5425 1.9317,-1.4263 4.5696,-3.685 6.5989,-5.3174 14.3816,-11.4726 17.6929,-31.2597 7.3672,-44.2041 -10.3257,-12.9441 -30.3347,-14.1633 -44.7166,-2.6906 -2.0471,1.6213 -4.8247,3.7363 -6.6625,5.3173 -8.0496,6.9251 -13.0208,13.7649 -19.7957,20.949 -14.7859,15.0186 -27.0076,27.5479 -40.4243,36.5803 -5.814,3.3848 -14.3299,2.2137 -18.1944,1.9861 l -11.4033,8.136 c -65.0251,-68.1855 -153.5583,-111.7795 -248.8882,-120.248 -0.2666,-3.9949 -0.6159,-11.2161 -0.7045,-13.3892 -3.9026,-3.7346 -8.6172,-6.9229 -9.8018,-14.991 -1.3042,-16.1213 0.8733,-33.4663 3.3955,-54.3903 1.3921,-9.7762 3.7051,-17.8973 4.0999,-28.5083 0.09,-2.4122 -0.054,-5.9124 -0.064,-8.5206 0,-18.3972 -13.4238,-33.3149 -29.9819,-33.3132 z m -37.5414,232.552 -8.9049,157.2769 -0.6407,0.3203 c -0.5972,14.0703 -12.1772,25.3052 -26.3944,25.3052 -5.8238,0 -11.1993,-1.8702 -15.5675,-5.0611 l -0.2562,0.1282 -128.9607,-91.4194 c 39.6349,-38.9737 90.3309,-67.7752 148.7565,-81.0408 10.6723,-2.4231 21.3402,-4.2212 31.9679,-5.5093 z m 75.1468,0 c 68.2122,8.3894 131.2952,39.2764 179.635,86.6143 l -128.1277,90.8427 -0.4484,-0.1921 c -11.3724,8.3062 -27.3955,6.2454 -36.2603,-4.8689 -3.6311,-4.553 -5.5364,-9.9065 -5.7656,-15.3113 l -0.1282,-0.064 z m -302.6379,145.2969 117.7495,105.321 -0.1281,0.6407 c 10.6283,9.2397 12.1956,25.2729 3.3315,36.3884 -3.6311,4.5532 -8.4915,7.6072 -13.7098,9.0329 l -0.128,0.5125 -150.9346,43.5635 c -7.6821,-70.2451 8.8737,-138.5291 43.8197,-195.459 z m 529.2319,0.064 c 17.4951,28.3574 30.7437,60.0297 38.6306,94.3662 7.7923,33.9248 9.7478,67.7888 6.5345,100.5161 l -151.7034,-43.6914 -0.1282,-0.6407 c -13.5845,-3.7128 -21.9331,-17.5312 -18.7707,-31.3916 1.2959,-5.6777 4.3095,-10.4809 8.3923,-14.0297 l -0.064,-0.3206 117.1089,-104.8086 z m -288.3515,113.393 h 48.2402 l 29.9817,37.4776 -10.7627,46.7666 -43.3071,20.8208 -43.4355,-20.8848 -10.7628,-46.7666 z m 154.6501,128.2561 c 2.0501,-0.1037 4.0911,0.081 6.0862,0.4483 l 0.2563,-0.3203 156.1236,26.3942 c -22.8489,64.1934 -66.5708,119.8052 -124.9886,157.0205 l -60.6045,-146.3857 0.1922,-0.2563 c -5.5672,-12.9358 0,-28.1053 12.8125,-34.2742 3.2795,-1.5794 6.7058,-2.4539 10.1223,-2.6267 z m -262.2135,0.6406 c 11.9143,0.167 22.601,8.4363 25.3694,20.5645 1.2959,5.6777 0.6651,11.3032 -1.4735,16.2722 l 0.4485,0.5764 -59.9639,144.9126 c -56.0629,-35.9753 -100.7172,-89.841 -124.6044,-155.9311 l 154.7785,-26.2664 0.2562,0.3203 c 1.7313,-0.3183 3.4872,-0.4724 5.1892,-0.4485 z m 130.7545,63.4874 c 4.1502,-0.1524 8.3613,0.6992 12.3643,2.6267 5.247,2.5268 9.3005,6.5051 11.8518,11.2751 h 0.5766 l 76.3001,137.8657 c -9.9024,3.3194 -20.0825,6.1563 -30.4946,8.5205 -58.3536,13.2491 -116.5216,9.2347 -169.1927,-8.7126 l 76.1079,-137.6094 h 0.1281 c 4.5668,-8.5373 13.2279,-13.6306 22.3583,-13.9658 z" />
    </g>
    <g
       id="g2">
      <path
         id="path94"
         fill="#ffb012"
         stroke="none"
         d="m 2719.0142,362.17163 -42.8492,870.00487 c -75.3166,2.8872 -149.4314,-5.782 -220.1362,-24.876 -53.6946,-14.4799 -105.4121,-34.9511 -154.2244,-60.9201 -113.0871,-60.1636 -210.4968,-149.79105 -280.3266,-262.50662 z" />
      <path
         id="path95"
         fill="#ed9d0f"
         stroke="none"
         d="m 2676.165,1232.1765 c -75.3166,2.8872 -149.4314,-5.782 -220.1362,-24.876 l 262.9854,-845.12887 z" />
      <path
         id="path96"
         fill="#ff7915"
         stroke="none"
         d="m 2530.7942,502.94287 c 38.7263,39.02075 76.7864,72.04273 113.3122,99.95483 20.8685,15.96802 41.2352,30.29346 60.9349,43.09498 l -9.3396,189.42626 c -32.1158,-16.94238 -67.0699,-38.08325 -103.9124,-64.39917 -59.4983,-42.47412 -123.917,-98.47265 -189.1604,-172.21728 z" />
      <path
         id="path97"
         fill="#ff7915"
         stroke="none"
         d="m 2277.6296,692.302 c 90.8106,114.22852 181.8301,192.36353 262.1954,245.71509 55.1853,36.64819 105.3371,61.6062 146.958,78.55301 l -1.2264,25.0776 -2.3317,47.3425 -4.9344,100.1692 -0.015,-0.01 c -43.0153,-11.8582 -110.2797,-36.1848 -190.0712,-85.2478 -99.0721,-60.8789 -217.4529,-159.83548 -332.6668,-320.28983 z" />
      <path
         id="path98"
         fill="#dd620e"
         stroke="none"
         d="m 2686.7815,1016.5693 -1.2263,25.0777 -2.3318,47.3425 -4.9497,100.1611 c -43.0154,-11.8581 -110.2798,-36.1848 -190.0713,-85.2478 l 51.6211,-165.88669 c 55.1846,36.64966 105.3374,61.6062 146.958,78.55319 z" />
      <path
         id="path99"
         fill="#dd620e"
         stroke="none"
         d="m 2705.0405,645.99414 -9.3396,189.42651 c -32.1157,-16.94262 -67.0698,-38.08349 -103.9123,-64.39917 l 52.3178,-168.12378 c 20.8685,15.96802 41.2344,30.29517 60.9341,43.09644 z" />
      <path
         id="path100"
         fill="none"
         stroke="none"
         d="m 2538.7021,843.00732 c -5.2976,2.8733 -11.0256,8.38623 -17.1281,16.55713 -6.1306,8.15235 -13.0659,18.7566 -20.7971,31.79468 -7.6375,12.86011 -13.5809,23.9231 -17.8018,33.21729 -4.2681,9.26611 -6.3367,16.88476 -6.2617,22.8186 0.047,5.9248 2.5552,10.3706 7.497,13.30957 4.9419,2.92944 10.0147,2.99512 15.2281,0.18726 5.1853,-2.80811 10.8384,-8.26465 17.0063,-16.36084 6.1214,-8.08667 13.0474,-18.60694 20.741,-31.55127 7.7312,-13.03784 13.6931,-24.21314 17.8955,-33.51685 4.1746,-9.31274 6.3086,-16.95947 6.3459,-22.95898 0.019,-6.00879 -2.4335,-10.47339 -7.3754,-13.41236 -4.9417,-2.93896 -10.0708,-2.97632 -15.3497,-0.0842 z" />
      <path
         id="path101"
         fill="#ffffff"
         stroke="none"
         d="m 2430.5237,715.91309 -100.4661,14.95654 7.4688,50.41089 33.3579,-5.18506 c 2.9013,-0.5896 5.9431,-1.26367 9.1443,-2.05908 3.1916,-0.76758 6.7856,-1.85328 10.7915,-3.25733 -3.0513,4.53003 -6.3831,9.65918 -9.9866,15.42481 -3.6035,5.76538 -6.842,11.04419 -9.6968,15.85522 -2.8545,4.81079 -4.82,8.12402 -5.8872,9.92115 l -57.9077,97.50854 54.0984,32.12207 117.0984,-197.18848 z" />
      <path
         id="path102"
         fill="#ffffff"
         stroke="none"
         d="m 2579.3508,800.46777 c -17.5305,-10.40771 -33.9004,-14.6665 -49.1284,-12.76635 -15.2563,1.8999 -29.6233,9.07861 -43.1667,21.53637 -13.5528,12.43897 -26.6375,29.32373 -39.2915,50.6355 -12.5513,21.12476 -20.8067,40.70508 -24.7752,58.73169 -3.9402,18.01733 -3.0603,34.19067 2.7051,48.48267 5.7375,14.30175 16.8472,26.32885 33.2827,36.10005 13.2158,7.8435 25.7297,12.177 37.532,12.982 6.7004,0.4563 13.1997,-0.2071 19.543,-1.7586 l 65.9995,-212.09713 c -0.9419,-0.59791 -1.72,-1.26465 -2.7005,-1.8462 z m -24.2695,78.99512 c -4.2024,9.30371 -10.1643,20.47901 -17.8955,33.51685 -7.6936,12.94433 -14.6196,23.4646 -20.741,31.55127 -6.1679,8.09619 -11.821,13.55273 -17.0063,16.36084 -5.2134,2.80786 -10.2862,2.74218 -15.2281,-0.18726 -4.9418,-2.93897 -7.4501,-7.38477 -7.497,-13.30957 -0.075,-5.93384 1.9936,-13.55249 6.2617,-22.8186 4.2209,-9.29419 10.1643,-20.35718 17.8018,-33.21729 7.7312,-13.03808 14.6665,-23.64233 20.7971,-31.79468 6.1025,-8.1709 11.8305,-13.68383 17.1281,-16.55713 5.2789,-2.89209 10.408,-2.85473 15.3497,0.0842 4.9419,2.93897 7.3942,7.40357 7.3754,13.41236 -0.037,5.99951 -2.1713,13.64624 -6.3459,22.95898 z" />
      <path
         id="path103"
         fill="#dae9f9"
         stroke="none"
         d="m 2561.2212,984.63696 c 9.8933,-10.95996 19.5525,-24.35351 28.9495,-40.18066 12.6916,-21.39624 21.0405,-41.16382 25.0087,-59.31201 3.9685,-18.1482 3.0701,-34.34034 -2.6018,-48.60449 -5.3515,-13.42286 -15.654,-24.78321 -30.5263,-34.22583 l -65.9995,212.09713 c 4.84,-1.1838 9.5983,-2.8371 14.236,-5.1862 10.698,-5.438 21.0122,-13.63701 30.9334,-24.58794 z" />
    </g>
  </g>
  <text
     xml:space="preserve"
     style="font-style:normal;font-variant:normal;font-weight:bold;font-stretch:normal;font-size:192px;line-height:125%;font-family:Ubuntu;-inkscape-font-specification:'Ubuntu, Bold';font-variant-ligatures:normal;font-variant-caps:normal;font-variant-numeric:normal;font-variant-east-asian:normal;text-align:center;letter-spacing:0px;word-spacing:0px;writing-mode:lr-tb;text-anchor:middle;fill:#326ce5;fill-opacity:1;stroke:none;stroke-width:1px;stroke-linecap:butt;stroke-linejoin:miter;stroke-opacity:1"
     x="827.83551"
     y="263.85153"
     id="text3"><tspan
       sodipodi:role="line"
       id="tspan3"
       x="827.83551"
       y="263.85153">10 years</tspan><tspan
       sodipodi:role="line"
       x="827.83551"
       y="503.85156"
       id="tspan4">of Kubernetes</tspan></text>
  <text
     xml:space="preserve"
     style="font-style:normal;font-variant:normal;font-weight:bold;font-stretch:normal;font-size:192px;line-height:125%;font-family:Ubuntu;-inkscape-font-specification:'Ubuntu, Bold';font-variant-ligatures:normal;font-variant-caps:normal;font-variant-numeric:normal;font-variant-east-asian:normal;text-align:center;letter-spacing:0px;word-spacing:0px;writing-mode:lr-tb;text-anchor:middle;fill:#326ce5;fill-opacity:1;stroke:none;stroke-width:1px;stroke-linecap:butt;stroke-linejoin:miter;stroke-opacity:1"
     x="2978.8511"
     y="263.85153"
     id="text6"><tspan
       sodipodi:role="line"
       x="2978.8511"
       y="263.85153"
       id="tspan6">Happy 10th</tspan><tspan
       sodipodi:role="line"
       x="2978.8511"
       y="503.85156"
       id="tspan7">birthday!</tspan></text>
  <text
     xml:space="preserve"
     style="font-style:normal;font-variant:normal;font-weight:300;font-stretch:normal;font-size:64px;line-height:125%;font-family:Ubuntu;-inkscape-font-specification:'Ubuntu, Light';font-variant-ligatures:normal;font-variant-caps:normal;font-variant-numeric:normal;font-variant-east-asian:normal;text-align:center;letter-spacing:0px;word-spacing:0px;writing-mode:lr-tb;text-anchor:middle;fill:#326ce5;fill-opacity:1;stroke:none;stroke-width:1px;stroke-linecap:butt;stroke-linejoin:miter;stroke-opacity:1"
     x="2979.6831"
     y="927.79919"
     id="text9"><tspan
       sodipodi:role="line"
       x="2979.6831"
       y="927.79919"
       id="tspan9">2014—2024</tspan></text>
  <text
     xml:space="preserve"
     style="font-style:normal;font-variant:normal;font-weight:300;font-stretch:normal;font-size:64px;line-height:125%;font-family:Ubuntu;-inkscape-font-specification:'Ubuntu, Light';font-variant-ligatures:normal;font-variant-caps:normal;font-variant-numeric:normal;font-variant-east-asian:normal;text-align:center;letter-spacing:0px;word-spacing:0px;writing-mode:lr-tb;text-anchor:middle;fill:#326ce5;fill-opacity:1;stroke:none;stroke-width:1px;stroke-linecap:butt;stroke-linejoin:miter;stroke-opacity:1"
     x="827.61163"
     y="927.79919"
     id="text10"><tspan
       sodipodi:role="line"
       x="827.61163"
       y="927.79919"
       id="tspan10">2014—2024</tspan></text>
</svg>
